<?xml version="1.0" encoding="UTF-8" standalone="no"?>
<!-- Created with Inkscape (http://www.inkscape.org/) -->

<svg
   xmlns:dc="http://purl.org/dc/elements/1.1/"
   xmlns:cc="http://creativecommons.org/ns#"
   xmlns:rdf="http://www.w3.org/1999/02/22-rdf-syntax-ns#"
   xmlns:svg="http://www.w3.org/2000/svg"
   xmlns="http://www.w3.org/2000/svg"
   xmlns:xlink="http://www.w3.org/1999/xlink"
   xmlns:sodipodi="http://sodipodi.sourceforge.net/DTD/sodipodi-0.dtd"
   xmlns:inkscape="http://www.inkscape.org/namespaces/inkscape"
   width="209.37488"
   height="241.70111"
   id="svg2"
   version="1.1"
   inkscape:version="0.48.0 r9654"
   sodipodi:docname="GS_PDF.svg">
  <defs
     id="defs4">
    <filter
       id="filter3900"
       inkscape:collect="always"
       color-interpolation-filters="sRGB">
      <feGaussianBlur
         id="feGaussianBlur3902"
         stdDeviation="12.868029"
         inkscape:collect="always" />
    </filter>
    <radialGradient
       xlink:href="#linearGradient48"
       r="0.70696199"
       id="radialGradient614"
       fy="0.265625"
       fx="0.57894802"
       cy="0.148334"
       cx="0.74736798" />
    <radialGradient
       xlink:href="#linearGradient842"
       r="0.45242199"
       id="radialGradient846"
       fy="0.609375"
       fx="0.33460101"
       cy="0.47657499"
       cx="0.41444901" />
    <radialGradient
       xlink:href="#linearGradient842"
       r="0.309724"
       id="radialGradient845"
       fy="0.81579"
       fx="0.54574102"
       cy="0.63158399"
       cx="0.56782299" />
    <radialGradient
       xlink:href="#linearGradient48"
       r="0.5"
       id="radialGradient577"
       fy="0.5"
       fx="0.5"
       cy="0.5"
       cx="0.5" />
    <linearGradient
       y2="1"
       y1="0"
       xlink:href="#linearGradient53"
       x2="1"
       x1="0"
       id="linearGradient52" />
    <linearGradient
       y2="0.80701798"
       y1="0.60526901"
       xlink:href="#linearGradient842"
       x2="0.880126"
       x1="0.51104099"
       id="linearGradient51" />
    <linearGradient
       id="linearGradient48">
      <stop
         style="stop-color: rgb(0, 0, 0); stop-opacity: 0.7294;"
         offset="0"
         id="stop49" />
      <stop
         style="stop-color: rgb(0, 0, 0); stop-opacity: 0;"
         offset="1"
         id="stop50" />
    </linearGradient>
    <linearGradient
       id="linearGradient53">
      <stop
         style="stop-color: rgb(240, 255, 0); stop-opacity: 1;"
         offset="0"
         id="stop54" />
      <stop
         style="stop-color: rgb(23, 111, 0); stop-opacity: 1;"
         offset="1"
         id="stop55" />
    </linearGradient>
    <linearGradient
       id="linearGradient842">
      <stop
         style="stop-color: rgb(12, 103, 0); stop-opacity: 1;"
         offset="0"
         id="stop843" />
      <stop
         style="stop-color: rgb(167, 218, 175); stop-opacity: 1;"
         offset="1"
         id="stop844" />
    </linearGradient>
  </defs>
  <sodipodi:namedview
     id="base"
     pagecolor="#ffffff"
     bordercolor="#666666"
     borderopacity="1.0"
     inkscape:pageopacity="0.0"
     inkscape:pageshadow="2"
     inkscape:zoom="0.98994948"
     inkscape:cx="-108.31486"
     inkscape:cy="-90.793946"
     inkscape:document-units="px"
     inkscape:current-layer="g3215"
     showgrid="false"
     fit-margin-top="0"
     fit-margin-left="0"
     fit-margin-right="0"
     fit-margin-bottom="0"
     inkscape:window-width="1280"
     inkscape:window-height="709"
     inkscape:window-x="0"
     inkscape:window-y="24"
     inkscape:window-maximized="1" />
  <metadata
     id="metadata7">
    <rdf:RDF>
      <cc:Work
         rdf:about="">
        <dc:format>image/svg+xml</dc:format>
        <dc:type
           rdf:resource="http://purl.org/dc/dcmitype/StillImage" />
        <dc:title />
      </cc:Work>
    </rdf:RDF>
  </metadata>
  <g
     inkscape:label="Layer 1"
     inkscape:groupmode="layer"
     id="layer1"
     transform="translate(-49.029146,-85.581398)">
    <g
       id="text4094"
       style="font-size:22.32485962px;font-style:normal;font-weight:normal;line-height:125%;letter-spacing:0px;word-spacing:0px;fill:#ffffff;fill-opacity:1;stroke:none;font-family:Sans"
       transform="matrix(1.3439872,0,0,1.1300249,-350.23524,1330.8032)" />
    <text
       xml:space="preserve"
       style="font-size:40px;font-style:normal;font-weight:normal;line-height:125%;letter-spacing:0px;word-spacing:0px;fill:#000000;fill-opacity:1;stroke:none;font-family:Sans"
       x="251.42857"
       y="546.64789"
       id="text3179"
       sodipodi:linespacing="125%"><tspan
         sodipodi:role="line"
         id="tspan3181"
         x="251.42857"
         y="546.64789" /></text>
    <g
       id="g3200"
       transform="matrix(1,0,0,0.85449392,23.322305,107.72234)" />
    <g
       id="g3215">
      <g
         id="g3244"
         transform="matrix(0.28604021,0,0,0.28604021,35.004839,61.101677)">
        <path
           transform="matrix(1.3029917,0,0,1.3052857,-649.08758,1329.8405)"
           inkscape:connector-curvature="0"
           id="path4062"
           d="m 567.88189,-922.36329 c -0.67373,0 -1.21875,0.0147 -1.21875,0.0312 l 0,163.90625 0,7.3125 0,414.25 c 0,0.0409 0.54502,0.0937 1.21875,0.0937 l 497.56251,0 c 0.6737,0 1.2187,-0.0529 1.2187,-0.0937 l 0,-414.25 0,-7.3125 0,-163.90625 c 0,-0.0166 -0.545,-0.0312 -1.2187,-0.0312 l -497.56251,0 z"
           style="fill:#1c241f;fill-opacity:1;stroke:none;filter:url(#filter3900)" />
        <path
           id="rect4064"
           d="m 97.919849,241.07565 613.188211,0 c 0.83029,0 1.49872,0.0405 1.49872,0.0908 l 0,519.53259 c 0,0.0503 -0.66843,0.0908 -1.49872,0.0908 l -613.188211,0 c -0.830285,0 -1.498724,-0.0405 -1.498724,-0.0908 l 0,-519.53259 c 0,-0.0503 0.668439,-0.0908 1.498724,-0.0908 z"
           style="fill:#ffffff;fill-opacity:1;stroke:none"
           inkscape:connector-curvature="0" />
        <path
           id="rect4066"
           d="m 97.919849,128.79831 613.188211,0 c 0.83029,0 1.49872,0.01 1.49872,0.0212 l 0,121.39538 c 0,0.0123 -0.66843,0.0212 -1.49872,0.0212 l -613.188211,0 c -0.830285,0 -1.498724,-0.01 -1.498724,-0.0212 l 0,-121.39538 c 0,-0.0123 0.668439,-0.0212 1.498724,-0.0212 z"
           style="fill:#d40000;fill-opacity:1;stroke:none"
           inkscape:connector-curvature="0" />
        <path
           id="rect4088"
           d="m 96.809409,760.81075 613.188211,0 c 0.83029,0 1.49871,0.01 1.49871,0.0212 l 0,121.39538 c 0,0.0123 -0.66842,0.0212 -1.49871,0.0212 l -613.188211,0 c -0.830298,0 -1.498724,-0.01 -1.498724,-0.0212 l 0,-121.39538 c 0,-0.0123 0.668426,-0.0212 1.498724,-0.0212 z"
           style="fill:#d40000;fill-opacity:1;stroke:none"
           inkscape:connector-curvature="0" />
        <g
           id="text4090"
           style="font-size:22.32485962px;font-style:normal;font-weight:normal;line-height:125%;letter-spacing:0px;word-spacing:0px;fill:#ffffff;fill-opacity:1;stroke:none;font-family:Sans"
           transform="matrix(1.3439872,0,0,1.1300249,-350.23524,1330.8032)">
          <path
             id="path5591"
             style="font-size:80.36949158px;font-variant:normal;font-weight:bold;font-stretch:normal;fill:#ffffff;font-family:FreeSerif;-inkscape-font-specification:FreeSerif Bold"
             d="m 411.14023,-426.69912 0,-39.62216 c 0,-1.82166 -0.48222,-3.10757 -1.44665,-3.85774 -0.91086,-0.75006 -2.65219,-1.25907 -5.22401,-1.52702 l 0,-2.00923 24.51269,0 c 9.26925,5e-5 16.55607,2.35755 21.8605,7.07251 5.30434,4.71505 7.95653,11.22498 7.95658,19.52979 -5e-5,8.30486 -2.65224,15.00232 -7.95658,20.09237 -5.30443,5.09007 -12.29656,7.6351 -20.97643,7.6351 l -25.39676,0 0,-2.00924 c 2.30392,-0.0536 3.99168,-0.509 5.06327,-1.36628 1.07159,-0.85727 1.60739,-2.16997 1.60739,-3.9381 m 33.67482,-19.20831 c -4e-5,-4.71498 -0.48226,-8.78703 -1.44665,-12.21616 -0.96447,-3.42906 -2.25038,-6.02767 -3.85774,-7.79584 -1.60742,-1.76808 -3.29518,-3.05399 -5.06327,-3.85774 -1.71458,-0.80364 -3.56308,-1.20549 -5.5455,-1.20554 -3.16122,5e-5 -4.74182,0.93769 -4.7418,2.81293 l 0,41.30992 c -2e-5,1.82171 0.32146,3.05404 0.96444,3.697 0.64293,0.64295 1.87526,0.96443 3.69699,0.96443 10.66232,0 15.99349,-7.90299 15.99353,-23.709"
             inkscape:connector-curvature="0" />
          <path
             id="path5593"
             style="font-size:80.36949158px;font-variant:normal;font-weight:bold;font-stretch:normal;fill:#ffffff;font-family:FreeSerif;-inkscape-font-specification:FreeSerif Bold"
             d="m 481.59289,-457.40027 c 5.1972,4e-5 9.51036,1.87533 12.93948,5.62587 3.42907,3.69702 5.14361,8.35845 5.14365,13.98429 -4e-5,5.5723 -1.71458,10.23372 -5.14365,13.98429 -3.42912,3.697 -7.74228,5.54549 -12.93948,5.54549 -5.25083,0 -9.59077,-1.84849 -13.01986,-5.54549 -3.4291,-3.75057 -5.14365,-8.49236 -5.14365,-14.2254 0,-5.4651 1.74134,-10.04616 5.22402,-13.74318 3.53624,-3.75054 7.8494,-5.62583 12.93949,-5.62587 m 0.0804,2.49146 c -2.46469,3e-5 -4.15244,1.28594 -5.06328,3.85773 -0.91087,2.57186 -1.3663,7.39402 -1.36628,14.46651 -2e-5,5.89377 0.45541,10.0194 1.36628,12.3769 0.96441,2.30393 2.62538,3.45589 4.98291,3.45589 2.35748,0 3.99166,-1.20554 4.90253,-3.61663 0.91083,-2.46465 1.36626,-6.77781 1.36629,-12.93948 -3e-5,-6.59028 -0.45546,-11.17133 -1.36629,-13.74319 -0.91087,-2.57179 -2.51826,-3.8577 -4.82216,-3.85773"
             inkscape:connector-curvature="0" />
          <path
             id="path5595"
             style="font-size:80.36949158px;font-variant:normal;font-weight:bold;font-stretch:normal;fill:#ffffff;font-family:FreeSerif;-inkscape-font-specification:FreeSerif Bold"
             d="m 534.71712,-428.14577 1.44665,1.44665 c -2.35754,3.00046 -4.74183,5.17044 -7.15288,6.50993 -2.35753,1.28591 -5.09009,1.92886 -8.19769,1.92886 -4.98293,0 -9.10856,-1.79491 -12.3769,-5.38475 -3.21479,-3.58983 -4.82218,-8.1441 -4.82217,-13.66281 -10e-6,-5.78658 1.79491,-10.58196 5.38475,-14.38614 3.58983,-3.80412 8.11731,-5.7062 13.58245,-5.70624 3.53623,4e-5 6.48311,0.85731 8.84064,2.57183 2.41105,1.661 3.61659,3.7506 3.61663,6.26882 -4e-5,1.55383 -0.48225,2.78617 -1.44665,3.69699 -0.96447,0.91088 -2.30396,1.36631 -4.01848,1.36628 -2.9469,3e-5 -4.44713,-1.92884 -4.50069,-5.7866 -2e-5,-2.25031 -0.13397,-3.61659 -0.40185,-4.09884 -0.53582,-1.01798 -1.52704,-1.52699 -2.97367,-1.52702 -2.08962,3e-5 -3.75059,1.20557 -4.98291,3.61662 -1.17876,2.35754 -1.76814,5.5991 -1.76813,9.72471 -1e-5,5.46514 1.018,9.83188 3.05405,13.10023 2.08958,3.21478 4.87572,4.82217 8.35842,4.82217 1.66095,0 3.0808,-0.32147 4.25959,-0.96443 1.2323,-0.69653 2.59858,-1.87529 4.09884,-3.53626"
             inkscape:connector-curvature="0" />
          <path
             id="path5597"
             style="font-size:80.36949158px;font-variant:normal;font-weight:bold;font-stretch:normal;fill:#ffffff;font-family:FreeSerif;-inkscape-font-specification:FreeSerif Bold"
             d="m 562.44961,-418.34069 0,-5.22402 c -2.35753,2.03603 -4.36677,3.4291 -6.02771,4.17921 -1.66099,0.75012 -3.53628,1.12517 -5.62587,1.12517 -3.32195,0 -5.94735,-0.99122 -7.87621,-2.97367 -1.87529,-1.98244 -2.81293,-4.74179 -2.81293,-8.27805 l 0,-20.25312 c 0,-1.66093 -0.24111,-2.78611 -0.72332,-3.37551 -0.48223,-0.58935 -1.55382,-1.04477 -3.21478,-1.36629 l 0,-1.92886 15.10946,0 0,27.24525 c -2e-5,2.03604 0.32146,3.50948 0.96443,4.42033 0.69652,0.85728 1.87527,1.28591 3.53626,1.28591 2.03601,0 4.23277,-1.17875 6.5903,-3.53626 l 0,-22.74457 c -3e-5,-1.71451 -0.3483,-2.89326 -1.0448,-3.53625 -0.64299,-0.64292 -1.95569,-1.04477 -3.93811,-1.20555 l 0,-1.92886 16.15427,0 0,28.93301 c -4e-5,1.71456 0.29465,2.9201 0.88406,3.61663 0.64292,0.64296 1.84846,0.99123 3.61663,1.0448 l 0,1.8485 -4.98291,0.56259 c -4.44714,0.48222 -7.9834,1.17875 -10.60877,2.08961"
             inkscape:connector-curvature="0" />
          <path
             id="path5599"
             style="font-size:80.36949158px;font-variant:normal;font-weight:bold;font-stretch:normal;fill:#ffffff;font-family:FreeSerif;-inkscape-font-specification:FreeSerif Bold"
             d="m 602.46358,-452.01551 c -1.44668,3e-5 -2.94691,0.6162 -4.5007,1.8485 -1.50024,1.23236 -2.25036,2.17 -2.25034,2.81293 l 0,21.45865 c -2e-5,1.55382 0.26788,2.6522 0.80369,3.29515 0.53578,0.64296 1.50022,1.0716 2.89331,1.28591 l 0,1.92887 -19.28868,0 0,-1.92887 c 1.76812,-0.32147 2.94687,-0.7769 3.53626,-1.36628 0.58937,-0.64295 0.88405,-1.79491 0.88406,-3.45589 l 0,-23.62863 c -1e-5,-1.66093 -0.29469,-2.81289 -0.88406,-3.45588 -0.58939,-0.64293 -1.76814,-1.07156 -3.53626,-1.28592 l 0,-1.92886 15.35057,0 0,6.02771 c 2.94686,-4.6614 6.88496,-6.99211 11.81432,-6.99215 2.51821,4e-5 4.55423,0.53584 6.10808,1.60739 1.55377,1.07163 2.94684,2.86655 4.17921,5.38476 2.08957,-2.57179 3.99164,-4.36671 5.70623,-5.38476 1.76809,-1.07155 3.80411,-1.60735 6.10809,-1.60739 3.32188,4e-5 5.94728,1.04484 7.87621,3.13441 1.98238,2.03606 2.97361,4.76862 2.97367,8.19769 l 0,20.17274 c -6e-5,1.71456 0.26783,2.89331 0.80369,3.53626 0.58932,0.58938 1.66091,0.93765 3.21478,1.0448 l 0,1.92887 -19.12794,0 0,-1.92887 c 1.55377,-0.10715 2.59857,-0.48221 3.13441,-1.12517 0.53575,-0.64295 0.80365,-1.79491 0.8037,-3.45589 l 0,-19.44941 c -5e-5,-2.35748 -0.34832,-4.04524 -1.04481,-5.06328 -0.643,-1.07156 -1.71459,-1.60736 -3.21478,-1.60739 -1.39311,3e-5 -2.89334,0.64299 -4.50069,1.92887 -1.55385,1.23236 -2.33075,2.14321 -2.33071,2.73256 l 0,21.45865 c -4e-5,1.55382 0.26786,2.67899 0.80369,3.37552 0.58934,0.64296 1.58056,1.04481 2.97367,1.20554 l 0,1.92887 -18.80646,0 0,-1.92887 c 1.50021,-0.10715 2.51822,-0.48221 3.05404,-1.12517 0.53577,-0.64295 0.80367,-1.79491 0.8037,-3.45589 l 0,-19.44941 c -3e-5,-2.41106 -0.3483,-4.12561 -1.0448,-5.14365 -0.64299,-1.01798 -1.74137,-1.52699 -3.29515,-1.52702"
             inkscape:connector-curvature="0" />
          <path
             id="path5601"
             style="font-size:80.36949158px;font-variant:normal;font-weight:bold;font-stretch:normal;fill:#ffffff;font-family:FreeSerif;-inkscape-font-specification:FreeSerif Bold"
             d="m 658.97337,-439.07602 c 0.0536,1.44667 0.16073,2.75937 0.32148,3.9381 0.16073,1.12519 0.42863,2.43789 0.8037,3.93811 0.42862,1.44666 0.96442,2.6522 1.60739,3.61662 0.69652,0.96444 1.60737,1.79493 2.73256,2.49146 1.17873,0.69654 2.54501,1.04481 4.09884,1.0448 1.71453,10e-6 3.26834,-0.40184 4.66143,-1.20554 1.39305,-0.80369 2.89328,-2.19676 4.5007,-4.17921 l 1.92886,1.12517 c -2.62543,3.75058 -5.09009,6.37598 -7.39399,7.87621 -2.25037,1.44665 -5.00972,2.16997 -8.27806,2.16997 -4.98292,0 -9.00139,-1.76812 -12.05542,-5.30438 -3.00047,-3.58983 -4.50069,-8.30484 -4.50069,-14.14503 0,-5.89374 1.52701,-10.63554 4.58106,-14.2254 3.10761,-3.64338 7.17966,-5.46509 12.21616,-5.46513 9.1621,4e-5 14.17179,6.10812 15.0291,18.32425 l -20.25312,0 m 10.36767,-4.17922 c -0.0536,-1.71452 -0.10718,-3.02722 -0.16074,-3.9381 -0.0536,-0.91083 -0.18755,-1.92884 -0.40185,-3.05404 -0.21434,-1.17872 -0.50903,-2.036 -0.88406,-2.57183 -0.3215,-0.58934 -0.80372,-1.07156 -1.44665,-1.44665 -0.5894,-0.4286 -1.33951,-0.64292 -2.25035,-0.64295 -1.98246,3e-5 -3.40232,0.93768 -4.25958,2.81293 -0.80371,1.87532 -1.25914,5.22404 -1.36628,10.04619 l 10.76951,0 0,-1.20555"
             inkscape:connector-curvature="0" />
          <path
             id="path5603"
             style="font-size:80.36949158px;font-variant:normal;font-weight:bold;font-stretch:normal;fill:#ffffff;font-family:FreeSerif;-inkscape-font-specification:FreeSerif Bold"
             d="m 703.01333,-452.01551 c -1.50026,3e-5 -3.02727,0.64299 -4.58106,1.92887 -1.55383,1.23236 -2.33074,2.14321 -2.33072,2.73256 l 0,21.45865 c -2e-5,1.50024 0.26788,2.59862 0.8037,3.29515 0.58935,0.64296 1.63416,1.0716 3.13441,1.28591 l 0,1.92887 -19.36905,0 0,-1.92887 c 1.8217,-0.37505 2.97366,-0.85727 3.45589,-1.44665 0.53579,-0.58937 0.80369,-1.71454 0.80369,-3.37552 l 0,-23.62863 c 0,-1.66093 -0.2679,-2.78611 -0.80369,-3.37551 -0.5358,-0.64293 -1.68777,-1.09835 -3.45589,-1.36629 l 0,-1.92886 15.35057,0 0,6.02771 c 2.94686,-4.6614 6.7778,-6.99211 11.49284,-6.99215 3.32191,4e-5 5.94731,1.04484 7.87621,3.13441 1.98241,2.03606 2.97363,4.76862 2.97367,8.19769 l 0,20.17274 c -4e-5,1.71456 0.26786,2.89331 0.80369,3.53626 0.53576,0.58938 1.58056,0.93765 3.13442,1.0448 l 0,1.92887 -18.88684,0 0,-1.92887 c 1.33947,-0.16073 2.3039,-0.58937 2.89331,-1.28591 0.58934,-0.69653 0.88403,-1.79491 0.88406,-3.29515 l 0,-19.44941 c -3e-5,-4.44709 -1.3931,-6.67064 -4.17921,-6.67067"
             inkscape:connector-curvature="0" />
          <path
             id="path5605"
             style="font-size:80.36949158px;font-variant:normal;font-weight:bold;font-stretch:normal;fill:#ffffff;font-family:FreeSerif;-inkscape-font-specification:FreeSerif Bold"
             d="m 748.23248,-456.43583 0,3.53625 -7.55473,0 0,24.19122 c -2e-5,1.6074 0.24109,2.78615 0.72333,3.53626 0.48219,0.69654 1.28589,1.04481 2.41108,1.0448 1.60737,10e-6 3.13439,-1.39306 4.58106,-4.17921 l 2.00924,0.88406 c -1.661,3.26837 -3.40233,5.59908 -5.22402,6.99215 -1.76815,1.33949 -3.9917,2.00923 -6.67067,2.00924 -2.78615,-10e-6 -4.98291,-0.75012 -6.59029,-2.25035 -1.6074,-1.50023 -2.41109,-3.56304 -2.41109,-6.18845 l 0,-26.03972 -4.17921,0 0,-2.16997 c 2.6254,-2.19673 4.87574,-4.3667 6.75103,-6.50993 1.92886,-2.14314 4.12563,-4.95607 6.5903,-8.4388 l 2.00924,0 0,13.58245 7.55473,0"
             inkscape:connector-curvature="0" />
        </g>
        <g
           id="text4138"
           style="font-size:40px;font-style:normal;font-weight:normal;line-height:125%;letter-spacing:0px;word-spacing:0px;fill:#aa4400;fill-opacity:1;stroke:#ffffff;stroke-opacity:1;font-family:Sans"
           transform="matrix(0.24239178,0,0,0.24239178,28.202375,338.50218)">
          <path
             inkscape:connector-curvature="0"
             d="m 805.12897,-536.76547 c 9.05728,-5.47765 22.2238,-24.31743 5.54617,-30.39687 -70.12965,-14.0134 -282.35583,84.09194 -299.50657,97.26974 -24.73902,14.84635 -45.41471,41.54867 -30.50536,48.63473 11.20351,8.68607 38.7421,17.34522 65.17041,-19.75791 15.32785,-18.64649 57.75199,-86.1742 62.3974,-106.38861 14.11442,-37.57948 48.48049,-187.83711 52.69098,-209.73742 2.69071,-15.80026 5.68887,-51.20516 -9.70631,-63.83321 -7.68523,-4.65975 -14.83426,2.88702 -19.41246,12.1587 -17.35833,53.1319 25.82256,123.23844 33.27862,133.74571 14.28437,24.97688 68.94734,104.43275 90.12918,130.70605 15.44801,15.11419 38.53809,19.32076 49.91794,7.59909 z"
             id="path581"
             style="fill:none;stroke:#ffffff;stroke-width:19.3489933" />
        </g>
        <g
           style="font-size:30.53769493px;font-style:normal;font-weight:normal;line-height:125%;letter-spacing:0px;word-spacing:0px;fill:#ffffff;fill-opacity:1;stroke:none;font-family:Sans"
           id="text3175">
          <path
             d="m 326.9064,232.36218 32.43103,0 0,-5.38685 -7.80543,-0.54968 -1.64904,-1.75897 0,-19.78842 c 3.29807,0.21987 5.82659,0.3298 7.47563,0.3298 18.46918,0 28.80315,-9.23461 28.80315,-24.40572 0,-15.83073 -9.67436,-22.20702 -30.01244,-22.20702 l -29.68265,0 0,5.38685 7.25576,0.54968 1.64904,1.5391 0,58.59573 -1.97885,1.75897 -6.4862,0.54968 0,5.38685 m 22.97656,-33.75026 0,-33.64033 5.71666,0 c 10.00414,0 15.391,5.82661 15.391,16.27049 0,11.65317 -5.71667,17.58971 -17.14997,17.58971 -1.2093,0 -2.52853,-0.10993 -3.95769,-0.21987"
             style="font-size:109.93570709px;font-variant:normal;font-weight:bold;font-stretch:normal;fill:#ffffff;font-family:Bitstream Charter;-inkscape-font-specification:Bitstream Charter Bold"
             id="path3033" />
          <path
             d="m 423.6378,158.59532 -32.10123,0 0,5.38685 6.70608,0.54968 1.75897,1.75897 0,58.37586 -1.75897,1.75897 -6.70608,0.54968 0,5.38685 32.10123,0 c 10.99356,0 19.23875,-1.64904 26.05476,-6.92595 8.90478,-6.816 13.52209,-16.93011 13.52209,-29.90251 0,-23.08647 -14.0718,-36.9384 -39.57685,-36.9384 m -9.12467,6.1564 6.37627,0 c 17.47976,0 25.94483,10.00417 25.94483,30.67207 0,20.66789 -8.46507,30.78199 -25.94483,30.78199 l -6.37627,0 0,-61.45406"
             style="font-size:109.93570709px;font-variant:normal;font-weight:bold;font-stretch:normal;fill:#ffffff;font-family:Bitstream Charter;-inkscape-font-specification:Bitstream Charter Bold"
             id="path3035" />
          <path
             d="m 470.44808,232.36218 32.43103,0 0,-5.38685 -7.6955,-0.54968 -1.8689,-1.75897 0,-25.61502 14.73138,0 1.5391,1.42917 1.09936,8.0253 6.48621,0 0,-25.61502 -6.48621,0 -1.09936,8.02531 -1.5391,1.42917 -14.73138,0 0,-27.374 21.21759,0 1.42916,1.42917 1.64904,10.66376 7.58556,0 0,-18.4692 -55.18772,0 0,5.38685 7.03588,0.54968 1.75897,1.5391 0,58.59573 -1.75897,1.75897 -6.59614,0.54968 0,5.38685"
             style="font-size:109.93570709px;font-variant:normal;font-weight:bold;font-stretch:normal;fill:#ffffff;font-family:Bitstream Charter;-inkscape-font-specification:Bitstream Charter Bold"
             id="path3037" />
        </g>
        <g
           style="font-size:41.66644287px;font-style:normal;font-weight:normal;line-height:125%;letter-spacing:0px;word-spacing:0px;fill:#d40000;fill-opacity:1;stroke:none;font-family:Sans"
           id="text3183">
          <path
             d="m 181.89894,512.36218 89.3563,0 0,-14.84223 -21.50609,-1.51451 -4.54354,-4.84645 0,-54.52248 c 9.08707,0.6058 16.05384,0.9087 20.59738,0.9087 50.8876,0 79.36051,-25.44387 79.36051,-67.2444 0,-43.61794 -26.65549,-61.18635 -82.69244,-61.18635 l -81.78373,0 0,14.84224 19.99158,1.51451 4.54354,4.24064 0,161.44714 -5.45225,4.84645 -17.87126,1.51451 0,14.84223 m 63.30667,-92.99113 0,-92.68823 15.75094,0 c 27.56412,0 42.40638,16.05387 42.40638,44.8296 0,32.10766 -15.75098,48.46444 -47.25283,48.46444 -3.33192,0 -6.96676,-0.30291 -10.90449,-0.60581"
             style="font-size:302.90270996px;font-variant:normal;font-weight:bold;font-stretch:normal;fill:#d40000;font-family:Bitstream Charter;-inkscape-font-specification:Bitstream Charter Bold"
             id="path3040" />
        </g>
        <g
           transform="matrix(1,0,0,0.85449392,23.322305,107.72234)"
           id="g3206">
          <path
             id="rect4142"
             d="m 384.48337,348.22373 245.44536,0 c 0.37066,0 0.66907,0.0165 0.66907,0.037 l 0,45.69996 c 0,0.0205 -0.29841,0.0369 -0.66907,0.0369 l -245.44536,0 c -0.37066,0 -0.66906,-0.0165 -0.66906,-0.0369 l 0,-45.69996 c 0,-0.0205 0.2984,-0.037 0.66906,-0.037 z"
             style="fill:#d40000;fill-opacity:1;stroke:#aa4400;stroke-width:1.23237133;stroke-opacity:1"
             inkscape:connector-curvature="0" />
          <path
             inkscape:connector-curvature="0"
             style="fill:#d40000;fill-opacity:1;stroke:#aa4400;stroke-width:1.23237133;stroke-opacity:1"
             d="m 384.48337,419.65231 245.44536,0 c 0.37066,0 0.66907,0.0165 0.66907,0.037 l 0,45.69996 c 0,0.0205 -0.29841,0.0369 -0.66907,0.0369 l -245.44536,0 c -0.37066,0 -0.66906,-0.0165 -0.66906,-0.0369 l 0,-45.69996 c 0,-0.0205 0.2984,-0.037 0.66906,-0.037 z"
             id="path3187" />
          <path
             inkscape:connector-curvature="0"
             style="fill:#d40000;fill-opacity:1;stroke:#aa4400;stroke-width:1.23237133;stroke-opacity:1"
             d="m 384.48337,274.66306 245.44536,0 c 0.37066,0 0.66907,0.0165 0.66907,0.037 l 0,45.69996 c 0,0.0205 -0.29841,0.0369 -0.66907,0.0369 l -245.44536,0 c -0.37066,0 -0.66906,-0.0165 -0.66906,-0.0369 l 0,-45.69996 c 0,-0.0205 0.2984,-0.037 0.66906,-0.037 z"
             id="path3204" />
        </g>
        <g
           id="g3195"
           transform="matrix(1,0,0,0.88292599,0,84.928548)">
          <path
             inkscape:connector-curvature="0"
             style="fill:#d40000;fill-opacity:1;stroke:#aa4400;stroke-width:1.79105389;stroke-opacity:1"
             d="m 139.51322,531.08088 518.42862,0 c 0.78291,0 1.41321,0.0165 1.41321,0.037 l 0,45.69996 c 0,0.0205 -0.6303,0.0369 -1.41321,0.0369 l -518.42862,0 c -0.78291,0 -1.41319,-0.0165 -1.41319,-0.0369 l 0,-45.69996 c 0,-0.0205 0.63028,-0.037 1.41319,-0.037 z"
             id="path3189" />
          <path
             id="path3191"
             d="m 139.51322,605.36659 518.42862,0 c 0.78291,0 1.41321,0.0165 1.41321,0.037 l 0,45.69996 c 0,0.0205 -0.6303,0.0369 -1.41321,0.0369 l -518.42862,0 c -0.78291,0 -1.41319,-0.0165 -1.41319,-0.0369 l 0,-45.69996 c 0,-0.0205 0.63028,-0.037 1.41319,-0.037 z"
             style="fill:#d40000;fill-opacity:1;stroke:#aa4400;stroke-width:1.79105389;stroke-opacity:1"
             inkscape:connector-curvature="0" />
          <path
             inkscape:connector-curvature="0"
             style="fill:#d40000;fill-opacity:1;stroke:#aa4400;stroke-width:1.79105389;stroke-opacity:1"
             d="m 139.51322,679.6523 518.42862,0 c 0.78291,0 1.41321,0.0165 1.41321,0.037 l 0,45.69996 c 0,0.0205 -0.6303,0.0369 -1.41321,0.0369 l -518.42862,0 c -0.78291,0 -1.41319,-0.0165 -1.41319,-0.0369 l 0,-45.69996 c 0,-0.0205 0.63028,-0.037 1.41319,-0.037 z"
             id="path3193" />
        </g>
      </g>
    </g>
  </g>
</svg>
